<mxfile host="app.diagrams.net" modified="2023-09-30T20:40:48.104Z" agent="Mozilla/5.0 (Windows NT 10.0; Win64; x64) AppleWebKit/537.36 (KHTML, like Gecko) Chrome/117.0.0.0 Safari/537.36 Edg/117.0.2045.43" etag="4y7SRrHrUv9JNy5ljtNB" version="22.0.0" type="device">
  <diagram name="Page-1" id="wfPxCudfdmNaddAcRzki">
    <mxGraphModel dx="1042" dy="569" grid="1" gridSize="10" guides="1" tooltips="1" connect="1" arrows="1" fold="1" page="1" pageScale="1" pageWidth="1169" pageHeight="827" math="0" shadow="0">
      <root>
        <mxCell id="0" />
        <mxCell id="1" parent="0" />
        <mxCell id="Tv342qbnqEpBoqay8Nz7-2" style="edgeStyle=orthogonalEdgeStyle;rounded=0;orthogonalLoop=1;jettySize=auto;html=1;" edge="1" parent="1" source="Tv342qbnqEpBoqay8Nz7-1" target="Tv342qbnqEpBoqay8Nz7-3">
          <mxGeometry relative="1" as="geometry">
            <mxPoint x="490" y="190" as="targetPoint" />
          </mxGeometry>
        </mxCell>
        <mxCell id="Tv342qbnqEpBoqay8Nz7-1" value="START" style="ellipse;whiteSpace=wrap;html=1;" vertex="1" parent="1">
          <mxGeometry x="410" y="40" width="160" height="110" as="geometry" />
        </mxCell>
        <mxCell id="Tv342qbnqEpBoqay8Nz7-6" style="edgeStyle=orthogonalEdgeStyle;rounded=0;orthogonalLoop=1;jettySize=auto;html=1;entryX=0.5;entryY=0;entryDx=0;entryDy=0;" edge="1" parent="1" source="Tv342qbnqEpBoqay8Nz7-3" target="Tv342qbnqEpBoqay8Nz7-5">
          <mxGeometry relative="1" as="geometry" />
        </mxCell>
        <mxCell id="Tv342qbnqEpBoqay8Nz7-3" value="String username, password" style="shape=hexagon;perimeter=hexagonPerimeter2;whiteSpace=wrap;html=1;fixedSize=1;" vertex="1" parent="1">
          <mxGeometry x="405" y="190" width="170" height="110" as="geometry" />
        </mxCell>
        <mxCell id="Tv342qbnqEpBoqay8Nz7-7" style="edgeStyle=orthogonalEdgeStyle;rounded=0;orthogonalLoop=1;jettySize=auto;html=1;entryX=0.5;entryY=0;entryDx=0;entryDy=0;" edge="1" parent="1" source="Tv342qbnqEpBoqay8Nz7-5" target="Tv342qbnqEpBoqay8Nz7-8">
          <mxGeometry relative="1" as="geometry">
            <mxPoint x="490" y="500" as="targetPoint" />
          </mxGeometry>
        </mxCell>
        <mxCell id="Tv342qbnqEpBoqay8Nz7-10" style="edgeStyle=orthogonalEdgeStyle;rounded=0;orthogonalLoop=1;jettySize=auto;html=1;entryX=0;entryY=0.5;entryDx=0;entryDy=0;" edge="1" parent="1" source="Tv342qbnqEpBoqay8Nz7-5" target="Tv342qbnqEpBoqay8Nz7-9">
          <mxGeometry relative="1" as="geometry" />
        </mxCell>
        <mxCell id="Tv342qbnqEpBoqay8Nz7-5" value="input username and password" style="rhombus;whiteSpace=wrap;html=1;" vertex="1" parent="1">
          <mxGeometry x="420" y="340" width="140" height="120" as="geometry" />
        </mxCell>
        <mxCell id="Tv342qbnqEpBoqay8Nz7-12" style="edgeStyle=orthogonalEdgeStyle;rounded=0;orthogonalLoop=1;jettySize=auto;html=1;" edge="1" parent="1" source="Tv342qbnqEpBoqay8Nz7-8" target="Tv342qbnqEpBoqay8Nz7-11">
          <mxGeometry relative="1" as="geometry" />
        </mxCell>
        <mxCell id="Tv342qbnqEpBoqay8Nz7-8" value="output anda berhasil login" style="shape=parallelogram;perimeter=parallelogramPerimeter;whiteSpace=wrap;html=1;fixedSize=1;" vertex="1" parent="1">
          <mxGeometry x="410" y="504.5" width="160" height="80" as="geometry" />
        </mxCell>
        <mxCell id="Tv342qbnqEpBoqay8Nz7-14" style="edgeStyle=orthogonalEdgeStyle;rounded=0;orthogonalLoop=1;jettySize=auto;html=1;entryX=1;entryY=0.5;entryDx=0;entryDy=0;" edge="1" parent="1" source="Tv342qbnqEpBoqay8Nz7-9" target="Tv342qbnqEpBoqay8Nz7-11">
          <mxGeometry relative="1" as="geometry">
            <mxPoint x="690" y="530" as="targetPoint" />
            <Array as="points">
              <mxPoint x="710" y="670" />
            </Array>
          </mxGeometry>
        </mxCell>
        <mxCell id="Tv342qbnqEpBoqay8Nz7-9" value="output username dan password salah" style="shape=parallelogram;perimeter=parallelogramPerimeter;whiteSpace=wrap;html=1;fixedSize=1;" vertex="1" parent="1">
          <mxGeometry x="610" y="360" width="160" height="80" as="geometry" />
        </mxCell>
        <mxCell id="Tv342qbnqEpBoqay8Nz7-11" value="FINISH" style="ellipse;whiteSpace=wrap;html=1;" vertex="1" parent="1">
          <mxGeometry x="430" y="630" width="120" height="80" as="geometry" />
        </mxCell>
      </root>
    </mxGraphModel>
  </diagram>
</mxfile>
